<?xml version="1.0" encoding="utf-8"?>
<!-- Generator: Adobe Illustrator 22.1.0, SVG Export Plug-In . SVG Version: 6.00 Build 0)  -->
<svg version="1.0" id="Capa_1" xmlns="http://www.w3.org/2000/svg" xmlns:xlink="http://www.w3.org/1999/xlink" x="0px" y="0px"
	 viewBox="0 0 50 50" style="enable-background:new 0 0 50 50;" xml:space="preserve">
<style type="text/css">
	.st0{fill:#FFFFFF;stroke:#000000;stroke-miterlimit:10;}
	.st1{fill:#F70303;}
	.st2{fill:#35F866;}
</style>
<g>
	<g>
		<path class="st0" d="M46,40.4l-8.9-8.9c0,0-0.1-0.1-0.1-0.1c-0.8,1.2-1.8,2.4-2.8,3.5c-1.1,1.1-2.3,2-3.5,2.8c0,0,0.1,0.1,0.1,0.1
			l8.9,8.9c1.8,1.8,4.6,1.8,6.4,0C47.8,45,47.8,42.1,46,40.4z"/>
		<path class="st0" d="M31.8,7.2c-7-7-18.3-7-25.3,0c-7,7-7,18.3,0,25.3c7,7,18.3,7,25.3,0C38.8,25.5,38.8,14.1,31.8,7.2z M9.8,29.2
			c-5-5-5.2-12.9-0.6-18.1c0.3-0.3,0.7-0.2,0.9,0.1c4.2,7.2,13.1,6.6,17.9-0.1c0.2-0.3,0.7-0.4,0.9-0.1c4.7,5.2,4.5,13.2-0.5,18.2
			C23.4,34.3,15,34.3,9.8,29.2z"/>
	</g>
	<path class="st0" d="M7.3,2.1"/>
</g>
<rect x="14.3" y="6.5" class="st1" width="9.2" height="1.3"/>
<rect x="14.2" y="23.8" class="st2" width="9.2" height="1.3"/>
<rect x="14.2" y="23.8" transform="matrix(6.123234e-17 -1 1 6.123234e-17 -5.5923 43.259)" class="st2" width="9.2" height="1.3"/>
</svg>
